<mxfile host="app.diagrams.net" agent="Mozilla/5.0 (Windows NT 10.0; Win64; x64; rv:109.0) Gecko/20100101 Firefox/117.0" version="24.7.7">
  <diagram id="R2lEEEUBdFMjLlhIrx00" name="Page-1">
    <mxGraphModel grid="1" page="1" gridSize="10" guides="1" tooltips="1" connect="1" arrows="1" fold="1" pageScale="1" pageWidth="850" pageHeight="1100" math="0" shadow="0" extFonts="Permanent Marker^https://fonts.googleapis.com/css?family=Permanent+Marker">
      <root>
        <mxCell id="0" />
        <mxCell id="1" parent="0" />
        <mxCell id="_nbkU5y0fVFvA1OjQMrp-6" value="Department" style="shape=table;startSize=30;container=1;collapsible=1;childLayout=tableLayout;fixedRows=1;rowLines=0;fontStyle=1;align=center;resizeLast=1;html=1;strokeColor=#006658;fontColor=#5C5C5C;fillColor=#21C0A5;" vertex="1" parent="1">
          <mxGeometry x="145" y="10" width="280" height="130" as="geometry" />
        </mxCell>
        <mxCell id="_nbkU5y0fVFvA1OjQMrp-7" value="" style="shape=tableRow;horizontal=0;startSize=0;swimlaneHead=0;swimlaneBody=0;fillColor=none;collapsible=0;dropTarget=0;points=[[0,0.5],[1,0.5]];portConstraint=eastwest;top=0;left=0;right=0;bottom=1;strokeColor=#006658;fontColor=#5C5C5C;" vertex="1" parent="_nbkU5y0fVFvA1OjQMrp-6">
          <mxGeometry y="30" width="280" height="40" as="geometry" />
        </mxCell>
        <mxCell id="_nbkU5y0fVFvA1OjQMrp-8" value="PK" style="shape=partialRectangle;connectable=0;fillColor=none;top=0;left=0;bottom=0;right=0;fontStyle=1;overflow=hidden;whiteSpace=wrap;html=1;strokeColor=#006658;fontColor=#5C5C5C;" vertex="1" parent="_nbkU5y0fVFvA1OjQMrp-7">
          <mxGeometry width="30" height="40" as="geometry">
            <mxRectangle width="30" height="40" as="alternateBounds" />
          </mxGeometry>
        </mxCell>
        <mxCell id="_nbkU5y0fVFvA1OjQMrp-9" value="DeptID INT NOT NULL" style="shape=partialRectangle;connectable=0;fillColor=none;top=0;left=0;bottom=0;right=0;align=left;spacingLeft=6;fontStyle=5;overflow=hidden;whiteSpace=wrap;html=1;strokeColor=#006658;fontColor=#5C5C5C;" vertex="1" parent="_nbkU5y0fVFvA1OjQMrp-7">
          <mxGeometry x="30" width="250" height="40" as="geometry">
            <mxRectangle width="250" height="40" as="alternateBounds" />
          </mxGeometry>
        </mxCell>
        <mxCell id="_nbkU5y0fVFvA1OjQMrp-10" value="" style="shape=tableRow;horizontal=0;startSize=0;swimlaneHead=0;swimlaneBody=0;fillColor=none;collapsible=0;dropTarget=0;points=[[0,0.5],[1,0.5]];portConstraint=eastwest;top=0;left=0;right=0;bottom=0;strokeColor=#006658;fontColor=#5C5C5C;" vertex="1" parent="_nbkU5y0fVFvA1OjQMrp-6">
          <mxGeometry y="70" width="280" height="30" as="geometry" />
        </mxCell>
        <mxCell id="_nbkU5y0fVFvA1OjQMrp-11" value="" style="shape=partialRectangle;connectable=0;fillColor=none;top=0;left=0;bottom=0;right=0;editable=1;overflow=hidden;whiteSpace=wrap;html=1;strokeColor=#006658;fontColor=#5C5C5C;" vertex="1" parent="_nbkU5y0fVFvA1OjQMrp-10">
          <mxGeometry width="30" height="30" as="geometry">
            <mxRectangle width="30" height="30" as="alternateBounds" />
          </mxGeometry>
        </mxCell>
        <mxCell id="_nbkU5y0fVFvA1OjQMrp-12" value="DeptName VARCHAR (75)" style="shape=partialRectangle;connectable=0;fillColor=none;top=0;left=0;bottom=0;right=0;align=left;spacingLeft=6;overflow=hidden;whiteSpace=wrap;html=1;strokeColor=#006658;fontColor=#5C5C5C;" vertex="1" parent="_nbkU5y0fVFvA1OjQMrp-10">
          <mxGeometry x="30" width="250" height="30" as="geometry">
            <mxRectangle width="250" height="30" as="alternateBounds" />
          </mxGeometry>
        </mxCell>
        <mxCell id="_nbkU5y0fVFvA1OjQMrp-13" value="" style="shape=tableRow;horizontal=0;startSize=0;swimlaneHead=0;swimlaneBody=0;fillColor=none;collapsible=0;dropTarget=0;points=[[0,0.5],[1,0.5]];portConstraint=eastwest;top=0;left=0;right=0;bottom=0;strokeColor=#006658;fontColor=#5C5C5C;" vertex="1" parent="_nbkU5y0fVFvA1OjQMrp-6">
          <mxGeometry y="100" width="280" height="30" as="geometry" />
        </mxCell>
        <mxCell id="_nbkU5y0fVFvA1OjQMrp-14" value="FK" style="shape=partialRectangle;connectable=0;fillColor=none;top=0;left=0;bottom=0;right=0;editable=1;overflow=hidden;whiteSpace=wrap;html=1;strokeColor=#006658;fontColor=#5C5C5C;" vertex="1" parent="_nbkU5y0fVFvA1OjQMrp-13">
          <mxGeometry width="30" height="30" as="geometry">
            <mxRectangle width="30" height="30" as="alternateBounds" />
          </mxGeometry>
        </mxCell>
        <mxCell id="_nbkU5y0fVFvA1OjQMrp-15" value="InstID INT" style="shape=partialRectangle;connectable=0;fillColor=none;top=0;left=0;bottom=0;right=0;align=left;spacingLeft=6;overflow=hidden;whiteSpace=wrap;html=1;strokeColor=#006658;fontColor=#5C5C5C;" vertex="1" parent="_nbkU5y0fVFvA1OjQMrp-13">
          <mxGeometry x="30" width="250" height="30" as="geometry">
            <mxRectangle width="250" height="30" as="alternateBounds" />
          </mxGeometry>
        </mxCell>
        <mxCell id="_nbkU5y0fVFvA1OjQMrp-22" value="" style="edgeStyle=entityRelationEdgeStyle;fontSize=12;html=1;endArrow=ERoneToMany;rounded=0;strokeColor=#006658;fontColor=#5C5C5C;fillColor=#21C0A5;exitX=1;exitY=0.5;exitDx=0;exitDy=0;" edge="1" parent="1" source="_nbkU5y0fVFvA1OjQMrp-10" target="_nbkU5y0fVFvA1OjQMrp-23">
          <mxGeometry width="100" height="100" relative="1" as="geometry">
            <mxPoint x="520" y="260" as="sourcePoint" />
            <mxPoint x="620" y="160" as="targetPoint" />
          </mxGeometry>
        </mxCell>
        <mxCell id="_nbkU5y0fVFvA1OjQMrp-23" value="Course" style="shape=table;startSize=30;container=1;collapsible=1;childLayout=tableLayout;fixedRows=1;rowLines=0;fontStyle=1;align=center;resizeLast=1;html=1;strokeColor=#006658;fontColor=#5C5C5C;fillColor=#21C0A5;" vertex="1" parent="1">
          <mxGeometry x="610" y="30" width="240" height="140" as="geometry" />
        </mxCell>
        <mxCell id="_nbkU5y0fVFvA1OjQMrp-24" value="" style="shape=tableRow;horizontal=0;startSize=0;swimlaneHead=0;swimlaneBody=0;fillColor=none;collapsible=0;dropTarget=0;points=[[0,0.5],[1,0.5]];portConstraint=eastwest;top=0;left=0;right=0;bottom=1;strokeColor=#006658;fontColor=#5C5C5C;" vertex="1" parent="_nbkU5y0fVFvA1OjQMrp-23">
          <mxGeometry y="30" width="240" height="30" as="geometry" />
        </mxCell>
        <mxCell id="_nbkU5y0fVFvA1OjQMrp-25" value="PK" style="shape=partialRectangle;connectable=0;fillColor=none;top=0;left=0;bottom=0;right=0;fontStyle=1;overflow=hidden;whiteSpace=wrap;html=1;strokeColor=#006658;fontColor=#5C5C5C;" vertex="1" parent="_nbkU5y0fVFvA1OjQMrp-24">
          <mxGeometry width="30" height="30" as="geometry">
            <mxRectangle width="30" height="30" as="alternateBounds" />
          </mxGeometry>
        </mxCell>
        <mxCell id="_nbkU5y0fVFvA1OjQMrp-26" value="CourseID INT NOT NULL" style="shape=partialRectangle;connectable=0;fillColor=none;top=0;left=0;bottom=0;right=0;align=left;spacingLeft=6;fontStyle=5;overflow=hidden;whiteSpace=wrap;html=1;strokeColor=#006658;fontColor=#5C5C5C;" vertex="1" parent="_nbkU5y0fVFvA1OjQMrp-24">
          <mxGeometry x="30" width="210" height="30" as="geometry">
            <mxRectangle width="210" height="30" as="alternateBounds" />
          </mxGeometry>
        </mxCell>
        <mxCell id="_nbkU5y0fVFvA1OjQMrp-30" value="" style="shape=tableRow;horizontal=0;startSize=0;swimlaneHead=0;swimlaneBody=0;fillColor=none;collapsible=0;dropTarget=0;points=[[0,0.5],[1,0.5]];portConstraint=eastwest;top=0;left=0;right=0;bottom=0;strokeColor=#006658;fontColor=#5C5C5C;" vertex="1" parent="_nbkU5y0fVFvA1OjQMrp-23">
          <mxGeometry y="60" width="240" height="20" as="geometry" />
        </mxCell>
        <mxCell id="_nbkU5y0fVFvA1OjQMrp-31" value="" style="shape=partialRectangle;connectable=0;fillColor=none;top=0;left=0;bottom=0;right=0;editable=1;overflow=hidden;whiteSpace=wrap;html=1;strokeColor=#006658;fontColor=#5C5C5C;" vertex="1" parent="_nbkU5y0fVFvA1OjQMrp-30">
          <mxGeometry width="30" height="20" as="geometry">
            <mxRectangle width="30" height="20" as="alternateBounds" />
          </mxGeometry>
        </mxCell>
        <mxCell id="_nbkU5y0fVFvA1OjQMrp-32" value="CourseName VARCHAR (100)" style="shape=partialRectangle;connectable=0;fillColor=none;top=0;left=0;bottom=0;right=0;align=left;spacingLeft=6;overflow=hidden;whiteSpace=wrap;html=1;strokeColor=#006658;fontColor=#5C5C5C;" vertex="1" parent="_nbkU5y0fVFvA1OjQMrp-30">
          <mxGeometry x="30" width="210" height="20" as="geometry">
            <mxRectangle width="210" height="20" as="alternateBounds" />
          </mxGeometry>
        </mxCell>
        <mxCell id="_nbkU5y0fVFvA1OjQMrp-27" value="" style="shape=tableRow;horizontal=0;startSize=0;swimlaneHead=0;swimlaneBody=0;fillColor=none;collapsible=0;dropTarget=0;points=[[0,0.5],[1,0.5]];portConstraint=eastwest;top=0;left=0;right=0;bottom=0;strokeColor=#006658;fontColor=#5C5C5C;" vertex="1" parent="_nbkU5y0fVFvA1OjQMrp-23">
          <mxGeometry y="80" width="240" height="30" as="geometry" />
        </mxCell>
        <mxCell id="_nbkU5y0fVFvA1OjQMrp-28" value="FK" style="shape=partialRectangle;connectable=0;fillColor=none;top=0;left=0;bottom=0;right=0;editable=1;overflow=hidden;whiteSpace=wrap;html=1;strokeColor=#006658;fontColor=#5C5C5C;" vertex="1" parent="_nbkU5y0fVFvA1OjQMrp-27">
          <mxGeometry width="30" height="30" as="geometry">
            <mxRectangle width="30" height="30" as="alternateBounds" />
          </mxGeometry>
        </mxCell>
        <mxCell id="_nbkU5y0fVFvA1OjQMrp-29" value="InstID INT" style="shape=partialRectangle;connectable=0;fillColor=none;top=0;left=0;bottom=0;right=0;align=left;spacingLeft=6;overflow=hidden;whiteSpace=wrap;html=1;strokeColor=#006658;fontColor=#5C5C5C;" vertex="1" parent="_nbkU5y0fVFvA1OjQMrp-27">
          <mxGeometry x="30" width="210" height="30" as="geometry">
            <mxRectangle width="210" height="30" as="alternateBounds" />
          </mxGeometry>
        </mxCell>
        <mxCell id="_nbkU5y0fVFvA1OjQMrp-33" value="" style="shape=tableRow;horizontal=0;startSize=0;swimlaneHead=0;swimlaneBody=0;fillColor=none;collapsible=0;dropTarget=0;points=[[0,0.5],[1,0.5]];portConstraint=eastwest;top=0;left=0;right=0;bottom=0;strokeColor=#006658;fontColor=#5C5C5C;" vertex="1" parent="_nbkU5y0fVFvA1OjQMrp-23">
          <mxGeometry y="110" width="240" height="30" as="geometry" />
        </mxCell>
        <mxCell id="_nbkU5y0fVFvA1OjQMrp-34" value="FK" style="shape=partialRectangle;connectable=0;fillColor=none;top=0;left=0;bottom=0;right=0;editable=1;overflow=hidden;whiteSpace=wrap;html=1;strokeColor=#006658;fontColor=#5C5C5C;" vertex="1" parent="_nbkU5y0fVFvA1OjQMrp-33">
          <mxGeometry width="30" height="30" as="geometry">
            <mxRectangle width="30" height="30" as="alternateBounds" />
          </mxGeometry>
        </mxCell>
        <mxCell id="_nbkU5y0fVFvA1OjQMrp-35" value="DeptID INT" style="shape=partialRectangle;connectable=0;fillColor=none;top=0;left=0;bottom=0;right=0;align=left;spacingLeft=6;overflow=hidden;whiteSpace=wrap;html=1;strokeColor=#006658;fontColor=#5C5C5C;" vertex="1" parent="_nbkU5y0fVFvA1OjQMrp-33">
          <mxGeometry x="30" width="210" height="30" as="geometry">
            <mxRectangle width="210" height="30" as="alternateBounds" />
          </mxGeometry>
        </mxCell>
        <mxCell id="_nbkU5y0fVFvA1OjQMrp-49" value="" style="edgeStyle=entityRelationEdgeStyle;fontSize=12;html=1;endArrow=ERmandOne;startArrow=ERmandOne;rounded=0;strokeColor=#006658;fontColor=#5C5C5C;fillColor=#21C0A5;entryX=0;entryY=0;entryDx=0;entryDy=0;entryPerimeter=0;" edge="1" parent="1">
          <mxGeometry width="100" height="100" relative="1" as="geometry">
            <mxPoint x="145" y="430" as="sourcePoint" />
            <mxPoint x="150" y="109.99999999999989" as="targetPoint" />
          </mxGeometry>
        </mxCell>
        <mxCell id="_nbkU5y0fVFvA1OjQMrp-36" value="Instructor" style="shape=table;startSize=30;container=1;collapsible=1;childLayout=tableLayout;fixedRows=1;rowLines=0;fontStyle=1;align=center;resizeLast=1;html=1;strokeColor=#006658;fontColor=#5C5C5C;fillColor=#21C0A5;" vertex="1" parent="1">
          <mxGeometry x="-85" y="400" width="230" height="90" as="geometry" />
        </mxCell>
        <mxCell id="_nbkU5y0fVFvA1OjQMrp-37" value="" style="shape=tableRow;horizontal=0;startSize=0;swimlaneHead=0;swimlaneBody=0;fillColor=none;collapsible=0;dropTarget=0;points=[[0,0.5],[1,0.5]];portConstraint=eastwest;top=0;left=0;right=0;bottom=1;strokeColor=#006658;fontColor=#5C5C5C;" vertex="1" parent="_nbkU5y0fVFvA1OjQMrp-36">
          <mxGeometry y="30" width="230" height="30" as="geometry" />
        </mxCell>
        <mxCell id="_nbkU5y0fVFvA1OjQMrp-38" value="PK" style="shape=partialRectangle;connectable=0;fillColor=none;top=0;left=0;bottom=0;right=0;fontStyle=1;overflow=hidden;whiteSpace=wrap;html=1;strokeColor=#006658;fontColor=#5C5C5C;" vertex="1" parent="_nbkU5y0fVFvA1OjQMrp-37">
          <mxGeometry width="30" height="30" as="geometry">
            <mxRectangle width="30" height="30" as="alternateBounds" />
          </mxGeometry>
        </mxCell>
        <mxCell id="_nbkU5y0fVFvA1OjQMrp-39" value="InstID INT NOT NULL" style="shape=partialRectangle;connectable=0;fillColor=none;top=0;left=0;bottom=0;right=0;align=left;spacingLeft=6;fontStyle=5;overflow=hidden;whiteSpace=wrap;html=1;strokeColor=#006658;fontColor=#5C5C5C;" vertex="1" parent="_nbkU5y0fVFvA1OjQMrp-37">
          <mxGeometry x="30" width="200" height="30" as="geometry">
            <mxRectangle width="200" height="30" as="alternateBounds" />
          </mxGeometry>
        </mxCell>
        <mxCell id="_nbkU5y0fVFvA1OjQMrp-40" value="" style="shape=tableRow;horizontal=0;startSize=0;swimlaneHead=0;swimlaneBody=0;fillColor=none;collapsible=0;dropTarget=0;points=[[0,0.5],[1,0.5]];portConstraint=eastwest;top=0;left=0;right=0;bottom=0;strokeColor=#006658;fontColor=#5C5C5C;" vertex="1" parent="_nbkU5y0fVFvA1OjQMrp-36">
          <mxGeometry y="60" width="230" height="30" as="geometry" />
        </mxCell>
        <mxCell id="_nbkU5y0fVFvA1OjQMrp-41" value="" style="shape=partialRectangle;connectable=0;fillColor=none;top=0;left=0;bottom=0;right=0;editable=1;overflow=hidden;whiteSpace=wrap;html=1;strokeColor=#006658;fontColor=#5C5C5C;" vertex="1" parent="_nbkU5y0fVFvA1OjQMrp-40">
          <mxGeometry width="30" height="30" as="geometry">
            <mxRectangle width="30" height="30" as="alternateBounds" />
          </mxGeometry>
        </mxCell>
        <mxCell id="_nbkU5y0fVFvA1OjQMrp-42" value="Instructor VARCHAR (75)" style="shape=partialRectangle;connectable=0;fillColor=none;top=0;left=0;bottom=0;right=0;align=left;spacingLeft=6;overflow=hidden;whiteSpace=wrap;html=1;strokeColor=#006658;fontColor=#5C5C5C;" vertex="1" parent="_nbkU5y0fVFvA1OjQMrp-40">
          <mxGeometry x="30" width="200" height="30" as="geometry">
            <mxRectangle width="200" height="30" as="alternateBounds" />
          </mxGeometry>
        </mxCell>
        <mxCell id="_nbkU5y0fVFvA1OjQMrp-50" value="" style="edgeStyle=entityRelationEdgeStyle;fontSize=12;html=1;endArrow=ERoneToMany;rounded=0;strokeColor=#006658;fontColor=#5C5C5C;fillColor=#21C0A5;entryX=0;entryY=0.071;entryDx=0;entryDy=0;entryPerimeter=0;" edge="1" parent="1" target="_nbkU5y0fVFvA1OjQMrp-23">
          <mxGeometry width="100" height="100" relative="1" as="geometry">
            <mxPoint x="140" y="480" as="sourcePoint" />
            <mxPoint x="240" y="380" as="targetPoint" />
          </mxGeometry>
        </mxCell>
        <mxCell id="_nbkU5y0fVFvA1OjQMrp-51" value="Enrollment" style="shape=table;startSize=30;container=1;collapsible=1;childLayout=tableLayout;fixedRows=1;rowLines=0;fontStyle=1;align=center;resizeLast=1;html=1;strokeColor=#006658;fontColor=#5C5C5C;fillColor=#21C0A5;" vertex="1" parent="1">
          <mxGeometry x="431" y="240" width="180" height="120" as="geometry" />
        </mxCell>
        <mxCell id="_nbkU5y0fVFvA1OjQMrp-52" value="" style="shape=tableRow;horizontal=0;startSize=0;swimlaneHead=0;swimlaneBody=0;fillColor=none;collapsible=0;dropTarget=0;points=[[0,0.5],[1,0.5]];portConstraint=eastwest;top=0;left=0;right=0;bottom=1;strokeColor=#006658;fontColor=#5C5C5C;" vertex="1" parent="_nbkU5y0fVFvA1OjQMrp-51">
          <mxGeometry y="30" width="180" height="30" as="geometry" />
        </mxCell>
        <mxCell id="_nbkU5y0fVFvA1OjQMrp-53" value="PK" style="shape=partialRectangle;connectable=0;fillColor=none;top=0;left=0;bottom=0;right=0;fontStyle=1;overflow=hidden;whiteSpace=wrap;html=1;strokeColor=#006658;fontColor=#5C5C5C;" vertex="1" parent="_nbkU5y0fVFvA1OjQMrp-52">
          <mxGeometry width="30" height="30" as="geometry">
            <mxRectangle width="30" height="30" as="alternateBounds" />
          </mxGeometry>
        </mxCell>
        <mxCell id="_nbkU5y0fVFvA1OjQMrp-54" value="EnrollID" style="shape=partialRectangle;connectable=0;fillColor=none;top=0;left=0;bottom=0;right=0;align=left;spacingLeft=6;fontStyle=5;overflow=hidden;whiteSpace=wrap;html=1;strokeColor=#006658;fontColor=#5C5C5C;" vertex="1" parent="_nbkU5y0fVFvA1OjQMrp-52">
          <mxGeometry x="30" width="150" height="30" as="geometry">
            <mxRectangle width="150" height="30" as="alternateBounds" />
          </mxGeometry>
        </mxCell>
        <mxCell id="_nbkU5y0fVFvA1OjQMrp-55" value="" style="shape=tableRow;horizontal=0;startSize=0;swimlaneHead=0;swimlaneBody=0;fillColor=none;collapsible=0;dropTarget=0;points=[[0,0.5],[1,0.5]];portConstraint=eastwest;top=0;left=0;right=0;bottom=0;strokeColor=#006658;fontColor=#5C5C5C;" vertex="1" parent="_nbkU5y0fVFvA1OjQMrp-51">
          <mxGeometry y="60" width="180" height="30" as="geometry" />
        </mxCell>
        <mxCell id="_nbkU5y0fVFvA1OjQMrp-56" value="FK" style="shape=partialRectangle;connectable=0;fillColor=none;top=0;left=0;bottom=0;right=0;editable=1;overflow=hidden;whiteSpace=wrap;html=1;strokeColor=#006658;fontColor=#5C5C5C;" vertex="1" parent="_nbkU5y0fVFvA1OjQMrp-55">
          <mxGeometry width="30" height="30" as="geometry">
            <mxRectangle width="30" height="30" as="alternateBounds" />
          </mxGeometry>
        </mxCell>
        <mxCell id="_nbkU5y0fVFvA1OjQMrp-57" value="CourseID INT" style="shape=partialRectangle;connectable=0;fillColor=none;top=0;left=0;bottom=0;right=0;align=left;spacingLeft=6;overflow=hidden;whiteSpace=wrap;html=1;strokeColor=#006658;fontColor=#5C5C5C;" vertex="1" parent="_nbkU5y0fVFvA1OjQMrp-55">
          <mxGeometry x="30" width="150" height="30" as="geometry">
            <mxRectangle width="150" height="30" as="alternateBounds" />
          </mxGeometry>
        </mxCell>
        <mxCell id="_nbkU5y0fVFvA1OjQMrp-58" value="" style="shape=tableRow;horizontal=0;startSize=0;swimlaneHead=0;swimlaneBody=0;fillColor=none;collapsible=0;dropTarget=0;points=[[0,0.5],[1,0.5]];portConstraint=eastwest;top=0;left=0;right=0;bottom=0;strokeColor=#006658;fontColor=#5C5C5C;" vertex="1" parent="_nbkU5y0fVFvA1OjQMrp-51">
          <mxGeometry y="90" width="180" height="30" as="geometry" />
        </mxCell>
        <mxCell id="_nbkU5y0fVFvA1OjQMrp-59" value="" style="shape=partialRectangle;connectable=0;fillColor=none;top=0;left=0;bottom=0;right=0;editable=1;overflow=hidden;whiteSpace=wrap;html=1;strokeColor=#006658;fontColor=#5C5C5C;" vertex="1" parent="_nbkU5y0fVFvA1OjQMrp-58">
          <mxGeometry width="30" height="30" as="geometry">
            <mxRectangle width="30" height="30" as="alternateBounds" />
          </mxGeometry>
        </mxCell>
        <mxCell id="_nbkU5y0fVFvA1OjQMrp-60" value="EnrollDate INT" style="shape=partialRectangle;connectable=0;fillColor=none;top=0;left=0;bottom=0;right=0;align=left;spacingLeft=6;overflow=hidden;whiteSpace=wrap;html=1;strokeColor=#006658;fontColor=#5C5C5C;" vertex="1" parent="_nbkU5y0fVFvA1OjQMrp-58">
          <mxGeometry x="30" width="150" height="30" as="geometry">
            <mxRectangle width="150" height="30" as="alternateBounds" />
          </mxGeometry>
        </mxCell>
        <mxCell id="_nbkU5y0fVFvA1OjQMrp-64" value="" style="edgeStyle=entityRelationEdgeStyle;fontSize=12;html=1;endArrow=ERoneToMany;rounded=0;strokeColor=#006658;fontColor=#5C5C5C;fillColor=#21C0A5;" edge="1" parent="1">
          <mxGeometry width="100" height="100" relative="1" as="geometry">
            <mxPoint x="610" y="280" as="sourcePoint" />
            <mxPoint x="610" y="160" as="targetPoint" />
          </mxGeometry>
        </mxCell>
        <mxCell id="_nbkU5y0fVFvA1OjQMrp-91" value="Schedule" style="shape=table;startSize=30;container=1;collapsible=1;childLayout=tableLayout;fixedRows=1;rowLines=0;fontStyle=1;align=center;resizeLast=1;html=1;strokeColor=#006658;fontColor=#5C5C5C;fillColor=#21C0A5;" vertex="1" parent="1">
          <mxGeometry x="650" y="370" width="180" height="120" as="geometry" />
        </mxCell>
        <mxCell id="_nbkU5y0fVFvA1OjQMrp-92" value="" style="shape=tableRow;horizontal=0;startSize=0;swimlaneHead=0;swimlaneBody=0;fillColor=none;collapsible=0;dropTarget=0;points=[[0,0.5],[1,0.5]];portConstraint=eastwest;top=0;left=0;right=0;bottom=1;strokeColor=#006658;fontColor=#5C5C5C;" vertex="1" parent="_nbkU5y0fVFvA1OjQMrp-91">
          <mxGeometry y="30" width="180" height="30" as="geometry" />
        </mxCell>
        <mxCell id="_nbkU5y0fVFvA1OjQMrp-93" value="PK" style="shape=partialRectangle;connectable=0;fillColor=none;top=0;left=0;bottom=0;right=0;fontStyle=1;overflow=hidden;whiteSpace=wrap;html=1;strokeColor=#006658;fontColor=#5C5C5C;" vertex="1" parent="_nbkU5y0fVFvA1OjQMrp-92">
          <mxGeometry width="30" height="30" as="geometry">
            <mxRectangle width="30" height="30" as="alternateBounds" />
          </mxGeometry>
        </mxCell>
        <mxCell id="_nbkU5y0fVFvA1OjQMrp-94" value="SchedID" style="shape=partialRectangle;connectable=0;fillColor=none;top=0;left=0;bottom=0;right=0;align=left;spacingLeft=6;fontStyle=5;overflow=hidden;whiteSpace=wrap;html=1;strokeColor=#006658;fontColor=#5C5C5C;" vertex="1" parent="_nbkU5y0fVFvA1OjQMrp-92">
          <mxGeometry x="30" width="150" height="30" as="geometry">
            <mxRectangle width="150" height="30" as="alternateBounds" />
          </mxGeometry>
        </mxCell>
        <mxCell id="_nbkU5y0fVFvA1OjQMrp-95" value="" style="shape=tableRow;horizontal=0;startSize=0;swimlaneHead=0;swimlaneBody=0;fillColor=none;collapsible=0;dropTarget=0;points=[[0,0.5],[1,0.5]];portConstraint=eastwest;top=0;left=0;right=0;bottom=0;strokeColor=#006658;fontColor=#5C5C5C;" vertex="1" parent="_nbkU5y0fVFvA1OjQMrp-91">
          <mxGeometry y="60" width="180" height="30" as="geometry" />
        </mxCell>
        <mxCell id="_nbkU5y0fVFvA1OjQMrp-96" value="FK" style="shape=partialRectangle;connectable=0;fillColor=none;top=0;left=0;bottom=0;right=0;editable=1;overflow=hidden;whiteSpace=wrap;html=1;strokeColor=#006658;fontColor=#5C5C5C;" vertex="1" parent="_nbkU5y0fVFvA1OjQMrp-95">
          <mxGeometry width="30" height="30" as="geometry">
            <mxRectangle width="30" height="30" as="alternateBounds" />
          </mxGeometry>
        </mxCell>
        <mxCell id="_nbkU5y0fVFvA1OjQMrp-97" value="CourseID" style="shape=partialRectangle;connectable=0;fillColor=none;top=0;left=0;bottom=0;right=0;align=left;spacingLeft=6;overflow=hidden;whiteSpace=wrap;html=1;strokeColor=#006658;fontColor=#5C5C5C;" vertex="1" parent="_nbkU5y0fVFvA1OjQMrp-95">
          <mxGeometry x="30" width="150" height="30" as="geometry">
            <mxRectangle width="150" height="30" as="alternateBounds" />
          </mxGeometry>
        </mxCell>
        <mxCell id="_nbkU5y0fVFvA1OjQMrp-98" value="" style="shape=tableRow;horizontal=0;startSize=0;swimlaneHead=0;swimlaneBody=0;fillColor=none;collapsible=0;dropTarget=0;points=[[0,0.5],[1,0.5]];portConstraint=eastwest;top=0;left=0;right=0;bottom=0;strokeColor=#006658;fontColor=#5C5C5C;" vertex="1" parent="_nbkU5y0fVFvA1OjQMrp-91">
          <mxGeometry y="90" width="180" height="30" as="geometry" />
        </mxCell>
        <mxCell id="_nbkU5y0fVFvA1OjQMrp-99" value="FK" style="shape=partialRectangle;connectable=0;fillColor=none;top=0;left=0;bottom=0;right=0;editable=1;overflow=hidden;whiteSpace=wrap;html=1;strokeColor=#006658;fontColor=#5C5C5C;" vertex="1" parent="_nbkU5y0fVFvA1OjQMrp-98">
          <mxGeometry width="30" height="30" as="geometry">
            <mxRectangle width="30" height="30" as="alternateBounds" />
          </mxGeometry>
        </mxCell>
        <mxCell id="_nbkU5y0fVFvA1OjQMrp-100" value="ClassID" style="shape=partialRectangle;connectable=0;fillColor=none;top=0;left=0;bottom=0;right=0;align=left;spacingLeft=6;overflow=hidden;whiteSpace=wrap;html=1;strokeColor=#006658;fontColor=#5C5C5C;" vertex="1" parent="_nbkU5y0fVFvA1OjQMrp-98">
          <mxGeometry x="30" width="150" height="30" as="geometry">
            <mxRectangle width="150" height="30" as="alternateBounds" />
          </mxGeometry>
        </mxCell>
        <mxCell id="_nbkU5y0fVFvA1OjQMrp-104" value="" style="edgeStyle=entityRelationEdgeStyle;fontSize=12;html=1;endArrow=ERmany;startArrow=ERmany;rounded=0;strokeColor=#006658;fontColor=#5C5C5C;fillColor=#21C0A5;entryX=0;entryY=0.5;entryDx=0;entryDy=0;" edge="1" parent="1" target="_nbkU5y0fVFvA1OjQMrp-98">
          <mxGeometry width="100" height="100" relative="1" as="geometry">
            <mxPoint x="400" y="480" as="sourcePoint" />
            <mxPoint x="500" y="380" as="targetPoint" />
          </mxGeometry>
        </mxCell>
        <mxCell id="_nbkU5y0fVFvA1OjQMrp-105" value="Student" style="shape=table;startSize=30;container=1;collapsible=1;childLayout=tableLayout;fixedRows=1;rowLines=0;fontStyle=1;align=center;resizeLast=1;html=1;strokeColor=#006658;fontColor=#5C5C5C;fillColor=#21C0A5;" vertex="1" parent="1">
          <mxGeometry x="-160" y="100" width="210" height="90" as="geometry" />
        </mxCell>
        <mxCell id="_nbkU5y0fVFvA1OjQMrp-106" value="" style="shape=tableRow;horizontal=0;startSize=0;swimlaneHead=0;swimlaneBody=0;fillColor=none;collapsible=0;dropTarget=0;points=[[0,0.5],[1,0.5]];portConstraint=eastwest;top=0;left=0;right=0;bottom=1;strokeColor=#006658;fontColor=#5C5C5C;" vertex="1" parent="_nbkU5y0fVFvA1OjQMrp-105">
          <mxGeometry y="30" width="210" height="30" as="geometry" />
        </mxCell>
        <mxCell id="_nbkU5y0fVFvA1OjQMrp-107" value="PK" style="shape=partialRectangle;connectable=0;fillColor=none;top=0;left=0;bottom=0;right=0;fontStyle=1;overflow=hidden;whiteSpace=wrap;html=1;strokeColor=#006658;fontColor=#5C5C5C;" vertex="1" parent="_nbkU5y0fVFvA1OjQMrp-106">
          <mxGeometry width="30" height="30" as="geometry">
            <mxRectangle width="30" height="30" as="alternateBounds" />
          </mxGeometry>
        </mxCell>
        <mxCell id="_nbkU5y0fVFvA1OjQMrp-108" value="StudentID" style="shape=partialRectangle;connectable=0;fillColor=none;top=0;left=0;bottom=0;right=0;align=left;spacingLeft=6;fontStyle=5;overflow=hidden;whiteSpace=wrap;html=1;strokeColor=#006658;fontColor=#5C5C5C;" vertex="1" parent="_nbkU5y0fVFvA1OjQMrp-106">
          <mxGeometry x="30" width="180" height="30" as="geometry">
            <mxRectangle width="180" height="30" as="alternateBounds" />
          </mxGeometry>
        </mxCell>
        <mxCell id="_nbkU5y0fVFvA1OjQMrp-109" value="" style="shape=tableRow;horizontal=0;startSize=0;swimlaneHead=0;swimlaneBody=0;fillColor=none;collapsible=0;dropTarget=0;points=[[0,0.5],[1,0.5]];portConstraint=eastwest;top=0;left=0;right=0;bottom=0;strokeColor=#006658;fontColor=#5C5C5C;" vertex="1" parent="_nbkU5y0fVFvA1OjQMrp-105">
          <mxGeometry y="60" width="210" height="30" as="geometry" />
        </mxCell>
        <mxCell id="_nbkU5y0fVFvA1OjQMrp-110" value="" style="shape=partialRectangle;connectable=0;fillColor=none;top=0;left=0;bottom=0;right=0;editable=1;overflow=hidden;whiteSpace=wrap;html=1;strokeColor=#006658;fontColor=#5C5C5C;" vertex="1" parent="_nbkU5y0fVFvA1OjQMrp-109">
          <mxGeometry width="30" height="30" as="geometry">
            <mxRectangle width="30" height="30" as="alternateBounds" />
          </mxGeometry>
        </mxCell>
        <mxCell id="_nbkU5y0fVFvA1OjQMrp-111" value="StudentName VARCHAR (75)" style="shape=partialRectangle;connectable=0;fillColor=none;top=0;left=0;bottom=0;right=0;align=left;spacingLeft=6;overflow=hidden;whiteSpace=wrap;html=1;strokeColor=#006658;fontColor=#5C5C5C;" vertex="1" parent="_nbkU5y0fVFvA1OjQMrp-109">
          <mxGeometry x="30" width="180" height="30" as="geometry">
            <mxRectangle width="180" height="30" as="alternateBounds" />
          </mxGeometry>
        </mxCell>
        <mxCell id="_nbkU5y0fVFvA1OjQMrp-130" value="Classroom" style="shape=table;startSize=30;container=1;collapsible=1;childLayout=tableLayout;fixedRows=1;rowLines=0;fontStyle=1;align=center;resizeLast=1;html=1;strokeColor=#006658;fontColor=#5C5C5C;fillColor=#21C0A5;" vertex="1" parent="1">
          <mxGeometry x="220" y="390" width="180" height="90" as="geometry" />
        </mxCell>
        <mxCell id="_nbkU5y0fVFvA1OjQMrp-131" value="" style="shape=tableRow;horizontal=0;startSize=0;swimlaneHead=0;swimlaneBody=0;fillColor=none;collapsible=0;dropTarget=0;points=[[0,0.5],[1,0.5]];portConstraint=eastwest;top=0;left=0;right=0;bottom=1;strokeColor=#006658;fontColor=#5C5C5C;" vertex="1" parent="_nbkU5y0fVFvA1OjQMrp-130">
          <mxGeometry y="30" width="180" height="30" as="geometry" />
        </mxCell>
        <mxCell id="_nbkU5y0fVFvA1OjQMrp-132" value="PK" style="shape=partialRectangle;connectable=0;fillColor=none;top=0;left=0;bottom=0;right=0;fontStyle=1;overflow=hidden;whiteSpace=wrap;html=1;strokeColor=#006658;fontColor=#5C5C5C;" vertex="1" parent="_nbkU5y0fVFvA1OjQMrp-131">
          <mxGeometry width="30" height="30" as="geometry">
            <mxRectangle width="30" height="30" as="alternateBounds" />
          </mxGeometry>
        </mxCell>
        <mxCell id="_nbkU5y0fVFvA1OjQMrp-133" value="ClassID" style="shape=partialRectangle;connectable=0;fillColor=none;top=0;left=0;bottom=0;right=0;align=left;spacingLeft=6;fontStyle=5;overflow=hidden;whiteSpace=wrap;html=1;strokeColor=#006658;fontColor=#5C5C5C;" vertex="1" parent="_nbkU5y0fVFvA1OjQMrp-131">
          <mxGeometry x="30" width="150" height="30" as="geometry">
            <mxRectangle width="150" height="30" as="alternateBounds" />
          </mxGeometry>
        </mxCell>
        <mxCell id="_nbkU5y0fVFvA1OjQMrp-134" value="" style="shape=tableRow;horizontal=0;startSize=0;swimlaneHead=0;swimlaneBody=0;fillColor=none;collapsible=0;dropTarget=0;points=[[0,0.5],[1,0.5]];portConstraint=eastwest;top=0;left=0;right=0;bottom=0;strokeColor=#006658;fontColor=#5C5C5C;" vertex="1" parent="_nbkU5y0fVFvA1OjQMrp-130">
          <mxGeometry y="60" width="180" height="30" as="geometry" />
        </mxCell>
        <mxCell id="_nbkU5y0fVFvA1OjQMrp-135" value="FK" style="shape=partialRectangle;connectable=0;fillColor=none;top=0;left=0;bottom=0;right=0;editable=1;overflow=hidden;whiteSpace=wrap;html=1;strokeColor=#006658;fontColor=#5C5C5C;" vertex="1" parent="_nbkU5y0fVFvA1OjQMrp-134">
          <mxGeometry width="30" height="30" as="geometry">
            <mxRectangle width="30" height="30" as="alternateBounds" />
          </mxGeometry>
        </mxCell>
        <mxCell id="_nbkU5y0fVFvA1OjQMrp-136" value="SchedID" style="shape=partialRectangle;connectable=0;fillColor=none;top=0;left=0;bottom=0;right=0;align=left;spacingLeft=6;overflow=hidden;whiteSpace=wrap;html=1;strokeColor=#006658;fontColor=#5C5C5C;" vertex="1" parent="_nbkU5y0fVFvA1OjQMrp-134">
          <mxGeometry x="30" width="150" height="30" as="geometry">
            <mxRectangle width="150" height="30" as="alternateBounds" />
          </mxGeometry>
        </mxCell>
        <mxCell id="_nbkU5y0fVFvA1OjQMrp-143" value="" style="edgeStyle=entityRelationEdgeStyle;fontSize=12;html=1;endArrow=ERmany;startArrow=ERmany;rounded=0;strokeColor=#006658;fontColor=#5C5C5C;fillColor=#21C0A5;exitX=1;exitY=0.5;exitDx=0;exitDy=0;entryX=0;entryY=0.5;entryDx=0;entryDy=0;" edge="1" parent="1" target="_nbkU5y0fVFvA1OjQMrp-24">
          <mxGeometry width="100" height="100" relative="1" as="geometry">
            <mxPoint x="50" y="170.0000000000001" as="sourcePoint" />
            <mxPoint x="600" y="90" as="targetPoint" />
          </mxGeometry>
        </mxCell>
        <mxCell id="_nbkU5y0fVFvA1OjQMrp-144" value="University" style="shape=table;startSize=30;container=1;collapsible=1;childLayout=tableLayout;fixedRows=1;rowLines=0;fontStyle=1;align=center;resizeLast=1;html=1;strokeColor=#006658;fontColor=#5C5C5C;fillColor=#21C0A5;" vertex="1" parent="1">
          <mxGeometry x="180" y="240" width="180" height="90" as="geometry" />
        </mxCell>
        <mxCell id="_nbkU5y0fVFvA1OjQMrp-145" value="" style="shape=tableRow;horizontal=0;startSize=0;swimlaneHead=0;swimlaneBody=0;fillColor=none;collapsible=0;dropTarget=0;points=[[0,0.5],[1,0.5]];portConstraint=eastwest;top=0;left=0;right=0;bottom=1;strokeColor=#006658;fontColor=#5C5C5C;" vertex="1" parent="_nbkU5y0fVFvA1OjQMrp-144">
          <mxGeometry y="30" width="180" height="30" as="geometry" />
        </mxCell>
        <mxCell id="_nbkU5y0fVFvA1OjQMrp-146" value="PK" style="shape=partialRectangle;connectable=0;fillColor=none;top=0;left=0;bottom=0;right=0;fontStyle=1;overflow=hidden;whiteSpace=wrap;html=1;strokeColor=#006658;fontColor=#5C5C5C;" vertex="1" parent="_nbkU5y0fVFvA1OjQMrp-145">
          <mxGeometry width="30" height="30" as="geometry">
            <mxRectangle width="30" height="30" as="alternateBounds" />
          </mxGeometry>
        </mxCell>
        <mxCell id="_nbkU5y0fVFvA1OjQMrp-147" value="UnivID VARCHAR (5)" style="shape=partialRectangle;connectable=0;fillColor=none;top=0;left=0;bottom=0;right=0;align=left;spacingLeft=6;fontStyle=5;overflow=hidden;whiteSpace=wrap;html=1;strokeColor=#006658;fontColor=#5C5C5C;" vertex="1" parent="_nbkU5y0fVFvA1OjQMrp-145">
          <mxGeometry x="30" width="150" height="30" as="geometry">
            <mxRectangle width="150" height="30" as="alternateBounds" />
          </mxGeometry>
        </mxCell>
        <mxCell id="_nbkU5y0fVFvA1OjQMrp-148" value="" style="shape=tableRow;horizontal=0;startSize=0;swimlaneHead=0;swimlaneBody=0;fillColor=none;collapsible=0;dropTarget=0;points=[[0,0.5],[1,0.5]];portConstraint=eastwest;top=0;left=0;right=0;bottom=0;strokeColor=#006658;fontColor=#5C5C5C;" vertex="1" parent="_nbkU5y0fVFvA1OjQMrp-144">
          <mxGeometry y="60" width="180" height="30" as="geometry" />
        </mxCell>
        <mxCell id="_nbkU5y0fVFvA1OjQMrp-149" value="" style="shape=partialRectangle;connectable=0;fillColor=none;top=0;left=0;bottom=0;right=0;editable=1;overflow=hidden;whiteSpace=wrap;html=1;strokeColor=#006658;fontColor=#5C5C5C;" vertex="1" parent="_nbkU5y0fVFvA1OjQMrp-148">
          <mxGeometry width="30" height="30" as="geometry">
            <mxRectangle width="30" height="30" as="alternateBounds" />
          </mxGeometry>
        </mxCell>
        <mxCell id="_nbkU5y0fVFvA1OjQMrp-150" value="UnivName VARCHAR (40)" style="shape=partialRectangle;connectable=0;fillColor=none;top=0;left=0;bottom=0;right=0;align=left;spacingLeft=6;overflow=hidden;whiteSpace=wrap;html=1;strokeColor=#006658;fontColor=#5C5C5C;" vertex="1" parent="_nbkU5y0fVFvA1OjQMrp-148">
          <mxGeometry x="30" width="150" height="30" as="geometry">
            <mxRectangle width="150" height="30" as="alternateBounds" />
          </mxGeometry>
        </mxCell>
        <mxCell id="_nbkU5y0fVFvA1OjQMrp-157" value="" style="edgeStyle=entityRelationEdgeStyle;fontSize=12;html=1;endArrow=ERoneToMany;rounded=0;strokeColor=#006658;fontColor=#5C5C5C;fillColor=#21C0A5;" edge="1" parent="1">
          <mxGeometry width="100" height="100" relative="1" as="geometry">
            <mxPoint x="362.92" y="289.01" as="sourcePoint" />
            <mxPoint x="150" y="90" as="targetPoint" />
            <Array as="points">
              <mxPoint x="452.92" y="189.01" />
              <mxPoint x="392.92" y="254.01" />
              <mxPoint x="472.92" y="189.01" />
            </Array>
          </mxGeometry>
        </mxCell>
      </root>
    </mxGraphModel>
  </diagram>
</mxfile>
